<mxfile host="app.diagrams.net" agent="Mozilla/5.0 (Windows NT 10.0; Win64; x64) AppleWebKit/537.36 (KHTML, like Gecko) Chrome/130.0.0.0 Safari/537.36" version="24.8.4">
  <diagram id="C5RBs43oDa-KdzZeNtuy" name="Page-1">
    <mxGraphModel dx="3860" dy="1148" grid="1" gridSize="10" guides="1" tooltips="1" connect="1" arrows="1" fold="1" page="1" pageScale="1" pageWidth="827" pageHeight="1169" math="0" shadow="0">
      <root>
        <mxCell id="WIyWlLk6GJQsqaUBKTNV-0" />
        <mxCell id="WIyWlLk6GJQsqaUBKTNV-1" parent="WIyWlLk6GJQsqaUBKTNV-0" />
        <mxCell id="zkfFHV4jXpPFQw0GAbJ--0" value="Actor" style="swimlane;fontStyle=2;align=center;verticalAlign=top;childLayout=stackLayout;horizontal=1;startSize=26;horizontalStack=0;resizeParent=1;resizeLast=0;collapsible=1;marginBottom=0;rounded=0;shadow=0;strokeWidth=1;" parent="WIyWlLk6GJQsqaUBKTNV-1" vertex="1">
          <mxGeometry x="220" y="120" width="250" height="120" as="geometry">
            <mxRectangle x="230" y="140" width="160" height="26" as="alternateBounds" />
          </mxGeometry>
        </mxCell>
        <mxCell id="zkfFHV4jXpPFQw0GAbJ--1" value="-name: String" style="text;align=left;verticalAlign=top;spacingLeft=4;spacingRight=4;overflow=hidden;rotatable=0;points=[[0,0.5],[1,0.5]];portConstraint=eastwest;" parent="zkfFHV4jXpPFQw0GAbJ--0" vertex="1">
          <mxGeometry y="26" width="250" height="26" as="geometry" />
        </mxCell>
        <mxCell id="zkfFHV4jXpPFQw0GAbJ--4" value="" style="line;html=1;strokeWidth=1;align=left;verticalAlign=middle;spacingTop=-1;spacingLeft=3;spacingRight=3;rotatable=0;labelPosition=right;points=[];portConstraint=eastwest;" parent="zkfFHV4jXpPFQw0GAbJ--0" vertex="1">
          <mxGeometry y="52" width="250" height="8" as="geometry" />
        </mxCell>
        <mxCell id="zkfFHV4jXpPFQw0GAbJ--5" value="+Actor(name: String)&#xa;+getOfferingsForViewing: ArrayList&lt;Offering&gt;" style="text;align=left;verticalAlign=top;spacingLeft=4;spacingRight=4;overflow=hidden;rotatable=0;points=[[0,0.5],[1,0.5]];portConstraint=eastwest;fontStyle=0" parent="zkfFHV4jXpPFQw0GAbJ--0" vertex="1">
          <mxGeometry y="60" width="250" height="60" as="geometry" />
        </mxCell>
        <mxCell id="zkfFHV4jXpPFQw0GAbJ--6" value="Admin" style="swimlane;fontStyle=0;align=center;verticalAlign=top;childLayout=stackLayout;horizontal=1;startSize=26;horizontalStack=0;resizeParent=1;resizeLast=0;collapsible=1;marginBottom=0;rounded=0;shadow=0;strokeWidth=1;" parent="WIyWlLk6GJQsqaUBKTNV-1" vertex="1">
          <mxGeometry x="80" y="440" width="305" height="860" as="geometry">
            <mxRectangle x="130" y="380" width="160" height="26" as="alternateBounds" />
          </mxGeometry>
        </mxCell>
        <mxCell id="zkfFHV4jXpPFQw0GAbJ--7" value="-password: String" style="text;align=left;verticalAlign=top;spacingLeft=4;spacingRight=4;overflow=hidden;rotatable=0;points=[[0,0.5],[1,0.5]];portConstraint=eastwest;" parent="zkfFHV4jXpPFQw0GAbJ--6" vertex="1">
          <mxGeometry y="26" width="305" height="26" as="geometry" />
        </mxCell>
        <mxCell id="zkfFHV4jXpPFQw0GAbJ--8" value="-instance: Admin" style="text;align=left;verticalAlign=top;spacingLeft=4;spacingRight=4;overflow=hidden;rotatable=0;points=[[0,0.5],[1,0.5]];portConstraint=eastwest;rounded=0;shadow=0;html=0;fontStyle=4" parent="zkfFHV4jXpPFQw0GAbJ--6" vertex="1">
          <mxGeometry y="52" width="305" height="26" as="geometry" />
        </mxCell>
        <mxCell id="zkfFHV4jXpPFQw0GAbJ--9" value="" style="line;html=1;strokeWidth=1;align=left;verticalAlign=middle;spacingTop=-1;spacingLeft=3;spacingRight=3;rotatable=0;labelPosition=right;points=[];portConstraint=eastwest;" parent="zkfFHV4jXpPFQw0GAbJ--6" vertex="1">
          <mxGeometry y="78" width="305" height="8" as="geometry" />
        </mxCell>
        <mxCell id="zkfFHV4jXpPFQw0GAbJ--10" value="-Admin(name, password)" style="text;align=left;verticalAlign=top;spacingLeft=4;spacingRight=4;overflow=hidden;rotatable=0;points=[[0,0.5],[1,0.5]];portConstraint=eastwest;fontStyle=4" parent="zkfFHV4jXpPFQw0GAbJ--6" vertex="1">
          <mxGeometry y="86" width="305" height="26" as="geometry" />
        </mxCell>
        <mxCell id="zkfFHV4jXpPFQw0GAbJ--11" value="+getInstance(name: String, password: String) : Admin&#xa;&#xa;+getOfferingsForViewing: ArrayList&lt;Offering&gt;&#xa;&#xa;+getAllBookingsForViewing: Map&lt;Offering, Integer&gt;&#xa;&#xa;+enterNewOffering(classType: String, location:String, &#xa;                               city: String, capacity: int, &#xa;                               startTime: Timestamp, &#xa;                                endTime: Timestamp): boolean&#xa;&#xa;+deleteOffering(offeringId: int)&#xa;&#xa;+deleteBooking(bookingId: int)&#xa;&#xa;+deleteInstructor(instructorId: int)&#xa;&#xa;+deleteClient(clientId: int)&#xa;&#xa;+getAllClientsForViewing(): ArrayList&lt;Client&gt;&#xa;&#xa;+getAllInstructorsForViewing(): ArrayList&lt;Instructor&gt;&#xa;&#xa;+getAllGuardiansForViewing(): ArrayList&lt;Guardian&gt;&#xa;&#xa;+getAllMinorsForViewing(): ArrayList&lt;Minor&gt;&#xa;&#xa;+deleteOffering(offeringId: int): boolean&#xa;&#xa;+deleteBooking(bookingId: int): boolean&#xa;&#xa;+deleteInstructor(instructorId: int): boolean&#xa;&#xa;+deleteClient(clientId: int): boolean&#xa;&#xa;+deleteGuardian(guardianId: int): boolean&#xa;&#xa;+deleteMinor(minorId: int): boolean&#xa;&#xa;&#xa;+isNewOfferingUnique(location: String, city: String, &#xa;                                     startTime: Timestamp, &#xa;                                     endTime: Timestamp): boolean&#xa;&#xa;+editOffering(offeringId: int, city: String, location: String, &#xa;                      classType: String, capacity: int, &#xa;                      startTime: Timestamp, &#xa;                      endTime: Timestamp, &#xa;                       instructorId: int): boolean&#xa;&#xa;+isInstructorValid(instructorId: int): boolean&#xa;" style="text;align=left;verticalAlign=top;spacingLeft=4;spacingRight=4;overflow=hidden;rotatable=0;points=[[0,0.5],[1,0.5]];portConstraint=eastwest;fontStyle=0" parent="zkfFHV4jXpPFQw0GAbJ--6" vertex="1">
          <mxGeometry y="112" width="305" height="738" as="geometry" />
        </mxCell>
        <mxCell id="zkfFHV4jXpPFQw0GAbJ--12" value="" style="endArrow=block;endSize=10;endFill=0;shadow=0;strokeWidth=1;rounded=0;curved=0;edgeStyle=elbowEdgeStyle;elbow=vertical;exitX=0.178;exitY=-0.002;exitDx=0;exitDy=0;exitPerimeter=0;" parent="WIyWlLk6GJQsqaUBKTNV-1" source="zkfFHV4jXpPFQw0GAbJ--6" edge="1">
          <mxGeometry width="160" relative="1" as="geometry">
            <mxPoint x="135" y="410" as="sourcePoint" />
            <mxPoint x="300" y="240" as="targetPoint" />
          </mxGeometry>
        </mxCell>
        <mxCell id="zkfFHV4jXpPFQw0GAbJ--13" value="Client" style="swimlane;fontStyle=0;align=center;verticalAlign=top;childLayout=stackLayout;horizontal=1;startSize=26;horizontalStack=0;resizeParent=1;resizeLast=0;collapsible=1;marginBottom=0;rounded=0;shadow=0;strokeWidth=1;" parent="WIyWlLk6GJQsqaUBKTNV-1" vertex="1">
          <mxGeometry x="590" y="590" width="390" height="278" as="geometry">
            <mxRectangle x="340" y="380" width="170" height="26" as="alternateBounds" />
          </mxGeometry>
        </mxCell>
        <mxCell id="zkfFHV4jXpPFQw0GAbJ--14" value="-id: int&#xa;-phoneNumber: String&#xa;-age: int" style="text;align=left;verticalAlign=top;spacingLeft=4;spacingRight=4;overflow=hidden;rotatable=0;points=[[0,0.5],[1,0.5]];portConstraint=eastwest;" parent="zkfFHV4jXpPFQw0GAbJ--13" vertex="1">
          <mxGeometry y="26" width="390" height="54" as="geometry" />
        </mxCell>
        <mxCell id="zkfFHV4jXpPFQw0GAbJ--15" value="" style="line;html=1;strokeWidth=1;align=left;verticalAlign=middle;spacingTop=-1;spacingLeft=3;spacingRight=3;rotatable=0;labelPosition=right;points=[];portConstraint=eastwest;" parent="zkfFHV4jXpPFQw0GAbJ--13" vertex="1">
          <mxGeometry y="80" width="390" height="8" as="geometry" />
        </mxCell>
        <mxCell id="7gu54isgV79Q07UWzMDv-10" value="+Client(id: int, name: String, phoneNumber: int,&amp;nbsp;&lt;span style=&quot;background-color: initial;&quot;&gt;age: int&lt;/span&gt;&lt;span style=&quot;background-color: initial;&quot;&gt;)&lt;/span&gt;&lt;span style=&quot;background-color: initial;&quot;&gt;&amp;nbsp;&lt;/span&gt;" style="text;html=1;align=left;verticalAlign=middle;resizable=0;points=[];autosize=1;strokeColor=none;fillColor=none;" parent="zkfFHV4jXpPFQw0GAbJ--13" vertex="1">
          <mxGeometry y="88" width="390" height="30" as="geometry" />
        </mxCell>
        <mxCell id="7gu54isgV79Q07UWzMDv-11" value="&lt;div&gt;&lt;div&gt;+getOfferingsForViewing():&amp;nbsp;&lt;span style=&quot;background-color: initial;&quot;&gt;&amp;nbsp;ArrayList&amp;lt;Offering&amp;gt;&lt;/span&gt;&lt;/div&gt;&lt;div&gt;&lt;br&gt;&lt;/div&gt;&lt;/div&gt;&lt;div&gt;&lt;div&gt;+getBookingsForViewing():&amp;nbsp;&lt;span style=&quot;background-color: initial;&quot;&gt;&amp;nbsp;&lt;/span&gt;&lt;span style=&quot;background-color: initial;&quot;&gt;Map&amp;lt;Offering, Integer&amp;gt;&lt;/span&gt;&lt;/div&gt;&lt;div&gt;&lt;span style=&quot;background-color: initial;&quot;&gt;&lt;br&gt;&lt;/span&gt;&lt;/div&gt;+makeBooking(offeringId: int): boolean&lt;/div&gt;&lt;div&gt;&lt;span style=&quot;background-color: initial;&quot;&gt;&lt;br&gt;&lt;/span&gt;&lt;/div&gt;&lt;div&gt;+cancelBooking(bookingId: int): boolean&lt;/div&gt;&lt;div&gt;&lt;br&gt;&lt;/div&gt;&lt;div&gt;+isThereBookingTimeConflict(startTime: Timestamp,&amp;nbsp;&lt;/div&gt;&lt;div&gt;&amp;nbsp; &amp;nbsp; &amp;nbsp; &amp;nbsp; &amp;nbsp; &amp;nbsp; &amp;nbsp; &amp;nbsp; &amp;nbsp; &amp;nbsp; &amp;nbsp; &amp;nbsp; &amp;nbsp; &amp;nbsp; &amp;nbsp; &amp;nbsp; &amp;nbsp; &amp;nbsp; &amp;nbsp; &amp;nbsp; &amp;nbsp; &amp;nbsp; &amp;nbsp; &amp;nbsp; endTime: Timestamp): boolean&lt;/div&gt;" style="text;html=1;align=left;verticalAlign=middle;resizable=0;points=[];autosize=1;strokeColor=none;fillColor=none;" parent="zkfFHV4jXpPFQw0GAbJ--13" vertex="1">
          <mxGeometry y="118" width="390" height="160" as="geometry" />
        </mxCell>
        <mxCell id="zkfFHV4jXpPFQw0GAbJ--16" value="" style="endArrow=block;endSize=10;endFill=0;shadow=0;strokeWidth=1;rounded=0;curved=0;edgeStyle=elbowEdgeStyle;elbow=vertical;exitX=0.316;exitY=0.006;exitDx=0;exitDy=0;exitPerimeter=0;entryX=0.47;entryY=1.014;entryDx=0;entryDy=0;entryPerimeter=0;" parent="WIyWlLk6GJQsqaUBKTNV-1" source="zkfFHV4jXpPFQw0GAbJ--13" target="zkfFHV4jXpPFQw0GAbJ--5" edge="1">
          <mxGeometry width="160" relative="1" as="geometry">
            <mxPoint x="704.0500000000002" y="418.88800000000003" as="sourcePoint" />
            <mxPoint x="338" y="250" as="targetPoint" />
          </mxGeometry>
        </mxCell>
        <mxCell id="7gu54isgV79Q07UWzMDv-0" value="UserInterface" style="rounded=0;whiteSpace=wrap;html=1;" parent="WIyWlLk6GJQsqaUBKTNV-1" vertex="1">
          <mxGeometry x="-473" y="140" width="120" height="50" as="geometry" />
        </mxCell>
        <mxCell id="7gu54isgV79Q07UWzMDv-1" value="We are omitting setters and getters in the class diagram, or else it would be too crowded. Assume every primitive attribute of every class has a corresponding setter and a getter.&lt;div&gt;&lt;/div&gt;" style="shape=note;whiteSpace=wrap;html=1;backgroundOutline=1;darkOpacity=0.05;align=left;" parent="WIyWlLk6GJQsqaUBKTNV-1" vertex="1">
          <mxGeometry x="-1380" y="240" width="330" height="120" as="geometry" />
        </mxCell>
        <mxCell id="7gu54isgV79Q07UWzMDv-2" value="&lt;div&gt;-The UserInterface (UI) is actually made up of several classes, but that is not relevant (according to the project description)&lt;/div&gt;-The UI has dependencies to all Actors, to Minor and to Offering, because it creates and shows instances of them." style="shape=note;whiteSpace=wrap;html=1;backgroundOutline=1;darkOpacity=0.05;align=left;" parent="WIyWlLk6GJQsqaUBKTNV-1" vertex="1">
          <mxGeometry x="-1380" y="60" width="300" height="130" as="geometry" />
        </mxCell>
        <mxCell id="7gu54isgV79Q07UWzMDv-5" value="" style="endArrow=block;endSize=10;endFill=0;shadow=0;strokeWidth=1;rounded=0;curved=0;edgeStyle=elbowEdgeStyle;elbow=vertical;exitX=0.5;exitY=0;exitDx=0;exitDy=0;" parent="WIyWlLk6GJQsqaUBKTNV-1" source="7gu54isgV79Q07UWzMDv-12" edge="1">
          <mxGeometry width="160" relative="1" as="geometry">
            <mxPoint x="1375" y="424" as="sourcePoint" />
            <mxPoint x="390" y="244" as="targetPoint" />
            <Array as="points">
              <mxPoint x="880" y="310" />
            </Array>
          </mxGeometry>
        </mxCell>
        <mxCell id="7gu54isgV79Q07UWzMDv-12" value="Instructor" style="swimlane;fontStyle=0;align=center;verticalAlign=top;childLayout=stackLayout;horizontal=1;startSize=26;horizontalStack=0;resizeParent=1;resizeLast=0;collapsible=1;marginBottom=0;rounded=0;shadow=0;strokeWidth=1;" parent="WIyWlLk6GJQsqaUBKTNV-1" vertex="1">
          <mxGeometry x="820" y="370" width="390" height="208" as="geometry">
            <mxRectangle x="340" y="380" width="170" height="26" as="alternateBounds" />
          </mxGeometry>
        </mxCell>
        <mxCell id="7gu54isgV79Q07UWzMDv-13" value="-id: int&#xa;-phoneNumber: String&#xa;-specialty: String&#xa;-cities: String[1..*]&#xa;" style="text;align=left;verticalAlign=top;spacingLeft=4;spacingRight=4;overflow=hidden;rotatable=0;points=[[0,0.5],[1,0.5]];portConstraint=eastwest;" parent="7gu54isgV79Q07UWzMDv-12" vertex="1">
          <mxGeometry y="26" width="390" height="74" as="geometry" />
        </mxCell>
        <mxCell id="7gu54isgV79Q07UWzMDv-15" value="+Instructor(id: int, name: String, phoneNumber: int,&amp;nbsp;&lt;div&gt;&lt;span style=&quot;white-space: pre;&quot;&gt;&#x9;&lt;/span&gt;&amp;nbsp; &amp;nbsp; &amp;nbsp; &amp;nbsp; &amp;nbsp; specialty: String, cities:&amp;nbsp;&lt;span style=&quot;background-color: initial;&quot;&gt;ArrayList&amp;lt;String&amp;gt;)&lt;/span&gt;&lt;span style=&quot;background-color: initial;&quot;&gt;&amp;nbsp;&lt;/span&gt;&lt;/div&gt;" style="text;html=1;align=left;verticalAlign=middle;resizable=0;points=[];autosize=1;strokeColor=none;fillColor=none;" parent="7gu54isgV79Q07UWzMDv-12" vertex="1">
          <mxGeometry y="100" width="390" height="40" as="geometry" />
        </mxCell>
        <mxCell id="7gu54isgV79Q07UWzMDv-14" value="" style="line;html=1;strokeWidth=1;align=left;verticalAlign=middle;spacingTop=-1;spacingLeft=3;spacingRight=3;rotatable=0;labelPosition=right;points=[];portConstraint=eastwest;" parent="7gu54isgV79Q07UWzMDv-12" vertex="1">
          <mxGeometry y="140" width="390" height="8" as="geometry" />
        </mxCell>
        <mxCell id="ZanfAX85IRqWrSVoW-81-2" value="+takeOffering(offeringId: int&lt;span style=&quot;background-color: initial;&quot;&gt;)&lt;/span&gt;&lt;span style=&quot;background-color: initial;&quot;&gt;&amp;nbsp;&lt;/span&gt;&lt;div&gt;&lt;span style=&quot;background-color: initial;&quot;&gt;&lt;br&gt;&lt;/span&gt;&lt;/div&gt;&lt;div&gt;&lt;u&gt;+fetchInstructorById(instructorId: int&lt;span style=&quot;background-color: initial;&quot;&gt;): Instructor&lt;/span&gt;&lt;span style=&quot;background-color: initial;&quot;&gt;&amp;nbsp;&lt;/span&gt;&lt;/u&gt;&lt;span style=&quot;background-color: initial;&quot;&gt;&lt;/span&gt;&lt;/div&gt;" style="text;html=1;align=left;verticalAlign=middle;resizable=0;points=[];autosize=1;strokeColor=none;fillColor=none;" parent="7gu54isgV79Q07UWzMDv-12" vertex="1">
          <mxGeometry y="148" width="390" height="60" as="geometry" />
        </mxCell>
        <mxCell id="7gu54isgV79Q07UWzMDv-17" value="Offering" style="swimlane;fontStyle=0;align=center;verticalAlign=top;childLayout=stackLayout;horizontal=1;startSize=26;horizontalStack=0;resizeParent=1;resizeLast=0;collapsible=1;marginBottom=0;rounded=0;shadow=0;strokeWidth=1;" parent="WIyWlLk6GJQsqaUBKTNV-1" vertex="1">
          <mxGeometry x="713" y="960" width="450" height="328" as="geometry">
            <mxRectangle x="340" y="380" width="170" height="26" as="alternateBounds" />
          </mxGeometry>
        </mxCell>
        <mxCell id="7gu54isgV79Q07UWzMDv-18" value="-id: int&#xa;-city: String&#xa;-location: String&#xa;-classType: String&#xa;-capacity: int&#xa;-startTime: Timestamp&#xa;-endTime: Timestamp&#xa;-spotsLeft: int&#xa;-instructorId: int&#xa;" style="text;align=left;verticalAlign=top;spacingLeft=4;spacingRight=4;overflow=hidden;rotatable=0;points=[[0,0.5],[1,0.5]];portConstraint=eastwest;" parent="7gu54isgV79Q07UWzMDv-17" vertex="1">
          <mxGeometry y="26" width="450" height="134" as="geometry" />
        </mxCell>
        <mxCell id="7gu54isgV79Q07UWzMDv-19" value="" style="line;html=1;strokeWidth=1;align=left;verticalAlign=middle;spacingTop=-1;spacingLeft=3;spacingRight=3;rotatable=0;labelPosition=right;points=[];portConstraint=eastwest;" parent="7gu54isgV79Q07UWzMDv-17" vertex="1">
          <mxGeometry y="160" width="450" height="8" as="geometry" />
        </mxCell>
        <mxCell id="7gu54isgV79Q07UWzMDv-20" value="&lt;div&gt;&lt;span style=&quot;background-color: initial;&quot;&gt;+Offering(id: int, city: String, location: String, classType: String, capacity: int,&lt;/span&gt;&lt;/div&gt;&lt;div&gt;&lt;div&gt;&lt;span style=&quot;white-space-collapse: preserve;&quot;&gt;&#x9;&lt;/span&gt;&lt;span style=&quot;white-space-collapse: preserve;&quot;&gt;&#x9;&lt;/span&gt;startTime: Timestamp, endTime: Timestamp, instructorId: int&lt;span style=&quot;background-color: initial;&quot;&gt;)&lt;/span&gt;&lt;/div&gt;&lt;/div&gt;&lt;div&gt;&lt;span style=&quot;background-color: initial;&quot;&gt;&lt;br&gt;&lt;/span&gt;&lt;/div&gt;&lt;div&gt;&lt;u&gt;-getSpotsLeft(offeringId: int, capacity: int): int&lt;/u&gt;&lt;/div&gt;&lt;div&gt;&lt;u&gt;&lt;br&gt;&lt;/u&gt;&lt;/div&gt;&lt;div&gt;&lt;u&gt;+hasOfferingBeenBookedByClient(offeringId: int, clientId: int): boolean&lt;/u&gt;&lt;/div&gt;&lt;div&gt;&lt;u&gt;&lt;br&gt;&lt;/u&gt;&lt;/div&gt;&lt;div&gt;&lt;div&gt;&lt;u&gt;+fetchClientForBooking(bookingId: int): Client&lt;/u&gt;&lt;/div&gt;&lt;/div&gt;&lt;div&gt;&lt;u&gt;&lt;br&gt;&lt;/u&gt;&lt;/div&gt;&lt;div&gt;&lt;span style=&quot;background-color: initial;&quot;&gt;&lt;br&gt;&lt;/span&gt;&lt;/div&gt;" style="text;html=1;align=left;verticalAlign=middle;resizable=0;points=[];autosize=1;strokeColor=none;fillColor=none;" parent="7gu54isgV79Q07UWzMDv-17" vertex="1">
          <mxGeometry y="168" width="450" height="160" as="geometry" />
        </mxCell>
        <mxCell id="aNtKidl8XJHsuktabAzi-6" value="" style="endArrow=classic;html=1;rounded=0;dashed=1;exitX=1.002;exitY=0.625;exitDx=0;exitDy=0;exitPerimeter=0;entryX=-0.006;entryY=0.188;entryDx=0;entryDy=0;entryPerimeter=0;" parent="WIyWlLk6GJQsqaUBKTNV-1" source="zkfFHV4jXpPFQw0GAbJ--11" target="7gu54isgV79Q07UWzMDv-18" edge="1">
          <mxGeometry width="50" height="50" relative="1" as="geometry">
            <mxPoint x="490" y="940" as="sourcePoint" />
            <mxPoint x="540" y="890" as="targetPoint" />
          </mxGeometry>
        </mxCell>
        <mxCell id="aNtKidl8XJHsuktabAzi-7" value="" style="endArrow=classic;html=1;rounded=0;dashed=1;exitX=0.401;exitY=0.995;exitDx=0;exitDy=0;exitPerimeter=0;entryX=0.077;entryY=0.006;entryDx=0;entryDy=0;entryPerimeter=0;" parent="WIyWlLk6GJQsqaUBKTNV-1" source="7gu54isgV79Q07UWzMDv-11" target="7gu54isgV79Q07UWzMDv-17" edge="1">
          <mxGeometry width="50" height="50" relative="1" as="geometry">
            <mxPoint x="460" y="731" as="sourcePoint" />
            <mxPoint x="601" y="730" as="targetPoint" />
          </mxGeometry>
        </mxCell>
        <mxCell id="aNtKidl8XJHsuktabAzi-8" value="" style="endArrow=classic;html=1;rounded=0;dashed=1;exitX=1.003;exitY=0.252;exitDx=0;exitDy=0;exitPerimeter=0;entryX=0;entryY=0.2;entryDx=0;entryDy=0;entryPerimeter=0;" parent="WIyWlLk6GJQsqaUBKTNV-1" source="zkfFHV4jXpPFQw0GAbJ--11" target="7gu54isgV79Q07UWzMDv-11" edge="1">
          <mxGeometry width="50" height="50" relative="1" as="geometry">
            <mxPoint x="391" y="710" as="sourcePoint" />
            <mxPoint x="390" y="806" as="targetPoint" />
          </mxGeometry>
        </mxCell>
        <mxCell id="aNtKidl8XJHsuktabAzi-9" value="" style="endArrow=classic;html=1;rounded=0;dashed=1;exitX=1;exitY=0.5;exitDx=0;exitDy=0;entryX=-0.003;entryY=0.73;entryDx=0;entryDy=0;entryPerimeter=0;" parent="WIyWlLk6GJQsqaUBKTNV-1" source="zkfFHV4jXpPFQw0GAbJ--8" target="7gu54isgV79Q07UWzMDv-13" edge="1">
          <mxGeometry width="50" height="50" relative="1" as="geometry">
            <mxPoint x="315" y="500" as="sourcePoint" />
            <mxPoint x="589" y="502" as="targetPoint" />
          </mxGeometry>
        </mxCell>
        <mxCell id="aNtKidl8XJHsuktabAzi-10" value="Guardian" style="swimlane;fontStyle=0;align=center;verticalAlign=top;childLayout=stackLayout;horizontal=1;startSize=26;horizontalStack=0;resizeParent=1;resizeLast=0;collapsible=1;marginBottom=0;rounded=0;shadow=0;strokeWidth=1;" parent="WIyWlLk6GJQsqaUBKTNV-1" vertex="1">
          <mxGeometry x="-450" y="585" width="390" height="335" as="geometry">
            <mxRectangle x="340" y="380" width="170" height="26" as="alternateBounds" />
          </mxGeometry>
        </mxCell>
        <mxCell id="aNtKidl8XJHsuktabAzi-11" value="-id: int&#xa;-phoneNumber: String&#xa;-age: int" style="text;align=left;verticalAlign=top;spacingLeft=4;spacingRight=4;overflow=hidden;rotatable=0;points=[[0,0.5],[1,0.5]];portConstraint=eastwest;" parent="aNtKidl8XJHsuktabAzi-10" vertex="1">
          <mxGeometry y="26" width="390" height="54" as="geometry" />
        </mxCell>
        <mxCell id="aNtKidl8XJHsuktabAzi-12" value="" style="line;html=1;strokeWidth=1;align=left;verticalAlign=middle;spacingTop=-1;spacingLeft=3;spacingRight=3;rotatable=0;labelPosition=right;points=[];portConstraint=eastwest;" parent="aNtKidl8XJHsuktabAzi-10" vertex="1">
          <mxGeometry y="80" width="390" height="8" as="geometry" />
        </mxCell>
        <mxCell id="aNtKidl8XJHsuktabAzi-13" value="+Guardian(id: int, name: String, phoneNumber: int,&amp;nbsp;&lt;span style=&quot;background-color: initial;&quot;&gt;age: int&lt;/span&gt;&lt;span style=&quot;background-color: initial;&quot;&gt;)&lt;/span&gt;&lt;span style=&quot;background-color: initial;&quot;&gt;&amp;nbsp;&lt;/span&gt;" style="text;html=1;align=left;verticalAlign=middle;resizable=0;points=[];autosize=1;strokeColor=none;fillColor=none;" parent="aNtKidl8XJHsuktabAzi-10" vertex="1">
          <mxGeometry y="88" width="390" height="30" as="geometry" />
        </mxCell>
        <mxCell id="aNtKidl8XJHsuktabAzi-14" value="&lt;div&gt;&lt;div&gt;+getOfferingsForViewing():&amp;nbsp;&lt;span style=&quot;background-color: initial;&quot;&gt;&amp;nbsp;ArrayList&amp;lt;Offering&amp;gt;&lt;/span&gt;&lt;/div&gt;&lt;div&gt;&lt;br&gt;&lt;/div&gt;&lt;/div&gt;&lt;div&gt;&lt;div&gt;+getBookingsForViewing():&amp;nbsp;&lt;span style=&quot;background-color: initial;&quot;&gt;&amp;nbsp;&lt;/span&gt;&lt;span style=&quot;background-color: initial;&quot;&gt;Map&amp;lt;Offering, Integer&amp;gt;&lt;/span&gt;&lt;/div&gt;&lt;div&gt;&lt;span style=&quot;background-color: initial;&quot;&gt;&lt;br&gt;&lt;/span&gt;&lt;/div&gt;+makeBooking(minorId: int, offeringId: int): boolean&lt;/div&gt;&lt;div&gt;&lt;span style=&quot;background-color: initial;&quot;&gt;&lt;br&gt;&lt;/span&gt;&lt;/div&gt;&lt;div&gt;+cancelBooking(bookingId: int): boolean&lt;/div&gt;&lt;div&gt;&lt;br&gt;&lt;/div&gt;&lt;div&gt;+isThereBookingTimeConflict(minorId: int, startTime: Timestamp,&amp;nbsp;&lt;/div&gt;&lt;div&gt;&amp;nbsp; &amp;nbsp; &amp;nbsp; &amp;nbsp; &amp;nbsp; &amp;nbsp; &amp;nbsp; &amp;nbsp; &amp;nbsp; &amp;nbsp; &amp;nbsp; &amp;nbsp; &amp;nbsp; &amp;nbsp; &amp;nbsp; &amp;nbsp; &amp;nbsp; &amp;nbsp; &amp;nbsp; &amp;nbsp; &amp;nbsp; &amp;nbsp; &amp;nbsp; &amp;nbsp; endTime: Timestamp): boolean&lt;/div&gt;&lt;div&gt;&lt;br&gt;&lt;/div&gt;&lt;div&gt;&lt;div&gt;+getMinors(&lt;span style=&quot;background-color: initial;&quot;&gt;): ArrayList&amp;lt;Minor&amp;gt;&lt;/span&gt;&lt;/div&gt;&lt;/div&gt;&lt;div&gt;&lt;span style=&quot;background-color: initial;&quot;&gt;&lt;br&gt;&lt;/span&gt;&lt;/div&gt;&lt;div&gt;&lt;span style=&quot;background-color: initial;&quot;&gt;+&lt;/span&gt;&lt;span style=&quot;background-color: initial;&quot;&gt;getMinorNameForBooking(bookingId: int): String&lt;/span&gt;&lt;/div&gt;" style="text;html=1;align=left;verticalAlign=middle;resizable=0;points=[];autosize=1;strokeColor=none;fillColor=none;" parent="aNtKidl8XJHsuktabAzi-10" vertex="1">
          <mxGeometry y="118" width="390" height="210" as="geometry" />
        </mxCell>
        <mxCell id="aNtKidl8XJHsuktabAzi-15" value="Minor" style="swimlane;fontStyle=0;align=center;verticalAlign=top;childLayout=stackLayout;horizontal=1;startSize=26;horizontalStack=0;resizeParent=1;resizeLast=0;collapsible=1;marginBottom=0;rounded=0;shadow=0;strokeWidth=1;" parent="WIyWlLk6GJQsqaUBKTNV-1" vertex="1">
          <mxGeometry x="-970" y="440" width="390" height="140" as="geometry">
            <mxRectangle x="340" y="380" width="170" height="26" as="alternateBounds" />
          </mxGeometry>
        </mxCell>
        <mxCell id="aNtKidl8XJHsuktabAzi-16" value="-id: int&#xa;-name: String&#xa;-guardianId: int&#xa;" style="text;align=left;verticalAlign=top;spacingLeft=4;spacingRight=4;overflow=hidden;rotatable=0;points=[[0,0.5],[1,0.5]];portConstraint=eastwest;" parent="aNtKidl8XJHsuktabAzi-15" vertex="1">
          <mxGeometry y="26" width="390" height="64" as="geometry" />
        </mxCell>
        <mxCell id="aNtKidl8XJHsuktabAzi-17" value="" style="line;html=1;strokeWidth=1;align=left;verticalAlign=middle;spacingTop=-1;spacingLeft=3;spacingRight=3;rotatable=0;labelPosition=right;points=[];portConstraint=eastwest;" parent="aNtKidl8XJHsuktabAzi-15" vertex="1">
          <mxGeometry y="90" width="390" height="20" as="geometry" />
        </mxCell>
        <mxCell id="aNtKidl8XJHsuktabAzi-18" value="+Minor(id: int, name: String, guardianId: int&lt;span style=&quot;background-color: initial;&quot;&gt;)&lt;/span&gt;&lt;span style=&quot;background-color: initial;&quot;&gt;&amp;nbsp;&lt;/span&gt;" style="text;html=1;align=left;verticalAlign=middle;resizable=0;points=[];autosize=1;strokeColor=none;fillColor=none;" parent="aNtKidl8XJHsuktabAzi-15" vertex="1">
          <mxGeometry y="110" width="390" height="30" as="geometry" />
        </mxCell>
        <mxCell id="aNtKidl8XJHsuktabAzi-20" value="" style="endArrow=block;endSize=10;endFill=0;shadow=0;strokeWidth=1;rounded=0;curved=0;edgeStyle=elbowEdgeStyle;elbow=vertical;exitX=0.178;exitY=-0.002;exitDx=0;exitDy=0;exitPerimeter=0;entryX=0.172;entryY=1.075;entryDx=0;entryDy=0;entryPerimeter=0;" parent="WIyWlLk6GJQsqaUBKTNV-1" target="zkfFHV4jXpPFQw0GAbJ--5" edge="1">
          <mxGeometry width="160" relative="1" as="geometry">
            <mxPoint x="-280" y="585" as="sourcePoint" />
            <mxPoint x="-114" y="387" as="targetPoint" />
            <Array as="points">
              <mxPoint x="-10" y="310" />
            </Array>
          </mxGeometry>
        </mxCell>
        <mxCell id="aNtKidl8XJHsuktabAzi-22" value="" style="endArrow=classic;html=1;rounded=0;dashed=1;exitX=-0.001;exitY=0.202;exitDx=0;exitDy=0;entryX=0.436;entryY=1;entryDx=0;entryDy=0;entryPerimeter=0;exitPerimeter=0;" parent="WIyWlLk6GJQsqaUBKTNV-1" source="aNtKidl8XJHsuktabAzi-14" target="aNtKidl8XJHsuktabAzi-18" edge="1">
          <mxGeometry width="50" height="50" relative="1" as="geometry">
            <mxPoint x="-480" y="584.5" as="sourcePoint" />
            <mxPoint x="-630" y="640" as="targetPoint" />
            <Array as="points">
              <mxPoint x="-800" y="740" />
            </Array>
          </mxGeometry>
        </mxCell>
        <mxCell id="aNtKidl8XJHsuktabAzi-23" value="" style="endArrow=classic;html=1;rounded=0;dashed=1;exitX=0;exitY=0.5;exitDx=0;exitDy=0;" parent="WIyWlLk6GJQsqaUBKTNV-1" source="zkfFHV4jXpPFQw0GAbJ--10" edge="1">
          <mxGeometry width="50" height="50" relative="1" as="geometry">
            <mxPoint x="-110" y="535" as="sourcePoint" />
            <mxPoint x="-580" y="540" as="targetPoint" />
            <Array as="points">
              <mxPoint x="-460" y="540" />
            </Array>
          </mxGeometry>
        </mxCell>
        <mxCell id="aNtKidl8XJHsuktabAzi-24" value="" style="endArrow=classic;html=1;rounded=0;dashed=1;entryX=0.989;entryY=0.572;entryDx=0;entryDy=0;entryPerimeter=0;" parent="WIyWlLk6GJQsqaUBKTNV-1" edge="1">
          <mxGeometry width="50" height="50" relative="1" as="geometry">
            <mxPoint x="80" y="730" as="sourcePoint" />
            <mxPoint x="-60" y="730" as="targetPoint" />
            <Array as="points">
              <mxPoint x="64" y="729" />
            </Array>
          </mxGeometry>
        </mxCell>
        <mxCell id="aNtKidl8XJHsuktabAzi-25" value="" style="endArrow=classic;html=1;rounded=0;dashed=1;exitX=0;exitY=0.5;exitDx=0;exitDy=0;entryX=1;entryY=0.383;entryDx=0;entryDy=0;entryPerimeter=0;" parent="WIyWlLk6GJQsqaUBKTNV-1" target="aNtKidl8XJHsuktabAzi-18" edge="1">
          <mxGeometry width="50" height="50" relative="1" as="geometry">
            <mxPoint x="100" y="559" as="sourcePoint" />
            <mxPoint x="-564" y="561" as="targetPoint" />
            <Array as="points">
              <mxPoint x="-440" y="560" />
            </Array>
          </mxGeometry>
        </mxCell>
        <mxCell id="aNtKidl8XJHsuktabAzi-27" value="" style="endArrow=classic;html=1;rounded=0;dashed=1;exitX=1.008;exitY=0.433;exitDx=0;exitDy=0;entryX=-0.005;entryY=0.823;entryDx=0;entryDy=0;entryPerimeter=0;exitPerimeter=0;" parent="WIyWlLk6GJQsqaUBKTNV-1" source="7gu54isgV79Q07UWzMDv-0" target="zkfFHV4jXpPFQw0GAbJ--1" edge="1">
          <mxGeometry width="50" height="50" relative="1" as="geometry">
            <mxPoint x="164" y="180" as="sourcePoint" />
            <mxPoint x="-500" y="182" as="targetPoint" />
            <Array as="points" />
          </mxGeometry>
        </mxCell>
        <mxCell id="aNtKidl8XJHsuktabAzi-28" value="" style="endArrow=classic;html=1;rounded=0;dashed=1;exitX=0.5;exitY=1;exitDx=0;exitDy=0;entryX=1.002;entryY=0.35;entryDx=0;entryDy=0;entryPerimeter=0;" parent="WIyWlLk6GJQsqaUBKTNV-1" source="7gu54isgV79Q07UWzMDv-0" target="aNtKidl8XJHsuktabAzi-16" edge="1">
          <mxGeometry width="50" height="50" relative="1" as="geometry">
            <mxPoint x="-413" y="200" as="sourcePoint" />
            <mxPoint x="-413" y="490" as="targetPoint" />
            <Array as="points">
              <mxPoint x="-410" y="488" />
            </Array>
          </mxGeometry>
        </mxCell>
        <mxCell id="aNtKidl8XJHsuktabAzi-29" value="" style="endArrow=classic;html=1;rounded=0;dashed=1;exitX=0.5;exitY=0;exitDx=0;exitDy=0;entryX=1.009;entryY=0.694;entryDx=0;entryDy=0;entryPerimeter=0;" parent="WIyWlLk6GJQsqaUBKTNV-1" source="7gu54isgV79Q07UWzMDv-0" target="7gu54isgV79Q07UWzMDv-18" edge="1">
          <mxGeometry width="50" height="50" relative="1" as="geometry">
            <mxPoint x="-400" y="100" as="sourcePoint" />
            <mxPoint x="1360" y="1080" as="targetPoint" />
            <Array as="points">
              <mxPoint x="-413" y="70" />
              <mxPoint x="1370" y="80" />
              <mxPoint x="1390" y="1079" />
            </Array>
          </mxGeometry>
        </mxCell>
        <mxCell id="aNtKidl8XJHsuktabAzi-31" value="-We are aware that, from a &quot;logical&quot; standpoint, some of these classes could have attribute visibility to other classes. For instance, Offering could hold an Instructor attribute and a Client collection attribute. Client could hold an Offering collection attribute, etc.&amp;nbsp;&lt;div&gt;-We tried doing things that way, but it led to additional complexity and slow response times from our database. Thus, we decided to encapsulate that logic in methods that are called when an actor requests to see a particular piece of information. For instance, an actor can request to see an Instructor&#39;s information for an Offering by clicking on &quot;View Instructor&quot; in their OfferingsPage. An Admin can view a Client&#39;s information for a Booking by clicking on &quot;View client&quot; in their BookingsPage, etc.&lt;/div&gt;" style="shape=note;whiteSpace=wrap;html=1;backgroundOutline=1;darkOpacity=0.05;align=left;" parent="WIyWlLk6GJQsqaUBKTNV-1" vertex="1">
          <mxGeometry x="-1380" y="670" width="370" height="186" as="geometry" />
        </mxCell>
        <mxCell id="HgLYeM26AzT3cy6kA920-0" value="We are omitting Service classes as I don&#39;t find them relevant to the class diagram. Service classes include...&lt;div&gt;&lt;/div&gt;&lt;div&gt;&lt;span style=&quot;white-space: pre;&quot;&gt;&#x9;&lt;/span&gt;-DbConnectionService&lt;br&gt;&lt;/div&gt;&lt;div&gt;&lt;span style=&quot;white-space: pre;&quot;&gt;&#x9;&lt;/span&gt;-LoginService&lt;br&gt;&lt;/div&gt;&lt;div&gt;&lt;span style=&quot;white-space: pre;&quot;&gt;&#x9;&lt;/span&gt;-RegisterService&lt;br&gt;&lt;/div&gt;&lt;div&gt;&lt;span style=&quot;white-space: pre;&quot;&gt;&#x9;&lt;/span&gt;-UserSession&lt;br&gt;&lt;/div&gt;&lt;div&gt;Assume these classes are used when needed throughout the code. Their purposes are self-explanatory.&lt;/div&gt;" style="shape=note;whiteSpace=wrap;html=1;backgroundOutline=1;darkOpacity=0.05;align=left;" vertex="1" parent="WIyWlLk6GJQsqaUBKTNV-1">
          <mxGeometry x="-1380" y="430" width="330" height="186" as="geometry" />
        </mxCell>
      </root>
    </mxGraphModel>
  </diagram>
</mxfile>
